<mxfile host="app.diagrams.net" agent="Mozilla/5.0 (Macintosh; Intel Mac OS X 10_15_7) AppleWebKit/537.36 (KHTML, like Gecko) Chrome/135.0.0.0 Safari/537.36" version="26.2.12">
  <diagram name="Page-1" id="tuMIXjng9ELiyzvDqweN">
    <mxGraphModel dx="2372" dy="991" grid="1" gridSize="10" guides="1" tooltips="1" connect="1" arrows="1" fold="1" page="1" pageScale="1" pageWidth="827" pageHeight="1169" math="0" shadow="0">
      <root>
        <mxCell id="0" />
        <mxCell id="1" parent="0" />
        <mxCell id="yFiq-YPZX80afXa3wXmC-90" value="" style="html=1;dropTarget=0;whiteSpace=wrap;" parent="1" vertex="1">
          <mxGeometry x="-90" y="130" width="1240" height="660" as="geometry" />
        </mxCell>
        <mxCell id="yFiq-YPZX80afXa3wXmC-91" value="" style="shape=module;jettyWidth=8;jettyHeight=4;" parent="yFiq-YPZX80afXa3wXmC-90" vertex="1">
          <mxGeometry x="1" width="20" height="20" relative="1" as="geometry">
            <mxPoint x="-27" y="7" as="offset" />
          </mxGeometry>
        </mxCell>
        <mxCell id="yFiq-YPZX80afXa3wXmC-36" value="Frontend" style="html=1;dropTarget=0;whiteSpace=wrap;" parent="1" vertex="1">
          <mxGeometry x="324" y="220" width="180" height="70" as="geometry" />
        </mxCell>
        <mxCell id="yFiq-YPZX80afXa3wXmC-37" value="" style="shape=module;jettyWidth=8;jettyHeight=4;" parent="yFiq-YPZX80afXa3wXmC-36" vertex="1">
          <mxGeometry x="1" width="20" height="20" relative="1" as="geometry">
            <mxPoint x="-27" y="7" as="offset" />
          </mxGeometry>
        </mxCell>
        <mxCell id="yFiq-YPZX80afXa3wXmC-38" value="Controllers" style="html=1;dropTarget=0;whiteSpace=wrap;" parent="1" vertex="1">
          <mxGeometry x="664" y="220" width="180" height="70" as="geometry" />
        </mxCell>
        <mxCell id="yFiq-YPZX80afXa3wXmC-39" value="" style="shape=module;jettyWidth=8;jettyHeight=4;" parent="yFiq-YPZX80afXa3wXmC-38" vertex="1">
          <mxGeometry x="1" width="20" height="20" relative="1" as="geometry">
            <mxPoint x="-27" y="7" as="offset" />
          </mxGeometry>
        </mxCell>
        <mxCell id="yFiq-YPZX80afXa3wXmC-40" value="" style="rounded=0;orthogonalLoop=1;jettySize=auto;html=1;endArrow=halfCircle;endFill=0;endSize=6;strokeWidth=1;sketch=0;exitX=1;exitY=0.5;exitDx=0;exitDy=0;" parent="1" source="yFiq-YPZX80afXa3wXmC-36" target="yFiq-YPZX80afXa3wXmC-42" edge="1">
          <mxGeometry relative="1" as="geometry">
            <mxPoint x="434" y="355" as="sourcePoint" />
          </mxGeometry>
        </mxCell>
        <mxCell id="yFiq-YPZX80afXa3wXmC-41" value="" style="rounded=0;orthogonalLoop=1;jettySize=auto;html=1;endArrow=oval;endFill=0;sketch=0;sourcePerimeterSpacing=0;targetPerimeterSpacing=0;endSize=10;exitX=0;exitY=0.5;exitDx=0;exitDy=0;" parent="1" source="yFiq-YPZX80afXa3wXmC-38" target="yFiq-YPZX80afXa3wXmC-42" edge="1">
          <mxGeometry relative="1" as="geometry">
            <mxPoint x="394" y="355" as="sourcePoint" />
          </mxGeometry>
        </mxCell>
        <mxCell id="yFiq-YPZX80afXa3wXmC-42" value="" style="ellipse;whiteSpace=wrap;html=1;align=center;aspect=fixed;fillColor=none;strokeColor=none;resizable=0;perimeter=centerPerimeter;rotatable=0;allowArrows=0;points=[];outlineConnect=1;" parent="1" vertex="1">
          <mxGeometry x="570" y="250" width="10" height="10" as="geometry" />
        </mxCell>
        <mxCell id="yFiq-YPZX80afXa3wXmC-43" value="DTOs" style="html=1;dropTarget=0;whiteSpace=wrap;" parent="1" vertex="1">
          <mxGeometry x="254" y="350" width="180" height="70" as="geometry" />
        </mxCell>
        <mxCell id="yFiq-YPZX80afXa3wXmC-44" value="" style="shape=module;jettyWidth=8;jettyHeight=4;" parent="yFiq-YPZX80afXa3wXmC-43" vertex="1">
          <mxGeometry x="1" width="20" height="20" relative="1" as="geometry">
            <mxPoint x="-27" y="7" as="offset" />
          </mxGeometry>
        </mxCell>
        <mxCell id="yFiq-YPZX80afXa3wXmC-45" value="Services" style="html=1;dropTarget=0;whiteSpace=wrap;" parent="1" vertex="1">
          <mxGeometry x="664" y="350" width="180" height="70" as="geometry" />
        </mxCell>
        <mxCell id="yFiq-YPZX80afXa3wXmC-46" value="" style="shape=module;jettyWidth=8;jettyHeight=4;" parent="yFiq-YPZX80afXa3wXmC-45" vertex="1">
          <mxGeometry x="1" width="20" height="20" relative="1" as="geometry">
            <mxPoint x="-27" y="7" as="offset" />
          </mxGeometry>
        </mxCell>
        <mxCell id="yFiq-YPZX80afXa3wXmC-47" value="Entities" style="html=1;dropTarget=0;whiteSpace=wrap;" parent="1" vertex="1">
          <mxGeometry x="254" y="515" width="180" height="70" as="geometry" />
        </mxCell>
        <mxCell id="yFiq-YPZX80afXa3wXmC-48" value="" style="shape=module;jettyWidth=8;jettyHeight=4;" parent="yFiq-YPZX80afXa3wXmC-47" vertex="1">
          <mxGeometry x="1" width="20" height="20" relative="1" as="geometry">
            <mxPoint x="-27" y="7" as="offset" />
          </mxGeometry>
        </mxCell>
        <mxCell id="yFiq-YPZX80afXa3wXmC-49" value="Mappers" style="html=1;dropTarget=0;whiteSpace=wrap;" parent="1" vertex="1">
          <mxGeometry x="470" y="640" width="180" height="70" as="geometry" />
        </mxCell>
        <mxCell id="yFiq-YPZX80afXa3wXmC-50" value="" style="shape=module;jettyWidth=8;jettyHeight=4;" parent="yFiq-YPZX80afXa3wXmC-49" vertex="1">
          <mxGeometry x="1" width="20" height="20" relative="1" as="geometry">
            <mxPoint x="-27" y="7" as="offset" />
          </mxGeometry>
        </mxCell>
        <mxCell id="yFiq-YPZX80afXa3wXmC-51" value="" style="endArrow=open;endSize=12;html=1;rounded=0;exitX=0.5;exitY=1;exitDx=0;exitDy=0;entryX=0.5;entryY=0;entryDx=0;entryDy=0;" parent="1" source="yFiq-YPZX80afXa3wXmC-38" target="yFiq-YPZX80afXa3wXmC-43" edge="1">
          <mxGeometry width="160" relative="1" as="geometry">
            <mxPoint x="470" y="570" as="sourcePoint" />
            <mxPoint x="630" y="570" as="targetPoint" />
          </mxGeometry>
        </mxCell>
        <mxCell id="yFiq-YPZX80afXa3wXmC-52" value="" style="endArrow=open;endSize=12;html=1;rounded=0;exitX=0.5;exitY=1;exitDx=0;exitDy=0;entryX=0.5;entryY=0;entryDx=0;entryDy=0;" parent="1" source="yFiq-YPZX80afXa3wXmC-38" target="yFiq-YPZX80afXa3wXmC-45" edge="1">
          <mxGeometry width="160" relative="1" as="geometry">
            <mxPoint x="450" y="560" as="sourcePoint" />
            <mxPoint x="610" y="560" as="targetPoint" />
          </mxGeometry>
        </mxCell>
        <mxCell id="yFiq-YPZX80afXa3wXmC-55" value="Repositories" style="html=1;dropTarget=0;whiteSpace=wrap;" parent="1" vertex="1">
          <mxGeometry x="670" y="500" width="180" height="70" as="geometry" />
        </mxCell>
        <mxCell id="yFiq-YPZX80afXa3wXmC-56" value="" style="shape=module;jettyWidth=8;jettyHeight=4;" parent="yFiq-YPZX80afXa3wXmC-55" vertex="1">
          <mxGeometry x="1" width="20" height="20" relative="1" as="geometry">
            <mxPoint x="-27" y="7" as="offset" />
          </mxGeometry>
        </mxCell>
        <mxCell id="yFiq-YPZX80afXa3wXmC-58" value="" style="rounded=0;orthogonalLoop=1;jettySize=auto;html=1;endArrow=halfCircle;endFill=0;endSize=6;strokeWidth=1;sketch=0;fontSize=12;curved=1;exitX=0.5;exitY=1;exitDx=0;exitDy=0;entryX=0.974;entryY=0.044;entryDx=0;entryDy=0;entryPerimeter=0;" parent="1" source="yFiq-YPZX80afXa3wXmC-55" edge="1" target="yFiq-YPZX80afXa3wXmC-72">
          <mxGeometry relative="1" as="geometry">
            <mxPoint x="745" y="555" as="sourcePoint" />
            <mxPoint x="980" y="600" as="targetPoint" />
          </mxGeometry>
        </mxCell>
        <mxCell id="yFiq-YPZX80afXa3wXmC-59" value="" style="ellipse;whiteSpace=wrap;html=1;align=center;aspect=fixed;fillColor=none;strokeColor=none;resizable=0;perimeter=centerPerimeter;rotatable=0;allowArrows=0;points=[];outlineConnect=1;" parent="1" vertex="1">
          <mxGeometry x="720" y="550" width="10" height="10" as="geometry" />
        </mxCell>
        <mxCell id="yFiq-YPZX80afXa3wXmC-60" value="&amp;lt;&amp;lt;delegates&amp;gt;&amp;gt;" style="endArrow=open;startArrow=none;endFill=0;startFill=0;endSize=8;html=1;verticalAlign=bottom;dashed=1;labelBackgroundColor=none;rounded=0;entryX=0.5;entryY=0;entryDx=0;entryDy=0;" parent="1" target="yFiq-YPZX80afXa3wXmC-62" edge="1">
          <mxGeometry width="160" relative="1" as="geometry">
            <mxPoint x="980" y="605" as="sourcePoint" />
            <mxPoint x="1140" y="605" as="targetPoint" />
          </mxGeometry>
        </mxCell>
        <mxCell id="yFiq-YPZX80afXa3wXmC-61" value="FETCH_API" style="text;html=1;align=center;verticalAlign=middle;resizable=0;points=[];autosize=1;strokeColor=none;fillColor=none;" parent="1" vertex="1">
          <mxGeometry x="540" y="220" width="90" height="30" as="geometry" />
        </mxCell>
        <mxCell id="yFiq-YPZX80afXa3wXmC-62" value="" style="html=1;rounded=0;" parent="1" vertex="1">
          <mxGeometry x="965" y="770" width="30" height="30" as="geometry" />
        </mxCell>
        <mxCell id="yFiq-YPZX80afXa3wXmC-69" value="" style="ellipse;whiteSpace=wrap;html=1;align=center;aspect=fixed;fillColor=none;strokeColor=none;resizable=0;perimeter=centerPerimeter;rotatable=0;allowArrows=0;points=[];outlineConnect=1;" parent="1" vertex="1">
          <mxGeometry x="830" y="560" width="10" height="10" as="geometry" />
        </mxCell>
        <mxCell id="yFiq-YPZX80afXa3wXmC-70" value="PostgreSQL" style="html=1;dropTarget=0;whiteSpace=wrap;" parent="1" vertex="1">
          <mxGeometry x="851" y="920" width="180" height="70" as="geometry" />
        </mxCell>
        <mxCell id="yFiq-YPZX80afXa3wXmC-71" value="" style="shape=module;jettyWidth=8;jettyHeight=4;" parent="yFiq-YPZX80afXa3wXmC-70" vertex="1">
          <mxGeometry x="1" width="20" height="20" relative="1" as="geometry">
            <mxPoint x="-27" y="7" as="offset" />
          </mxGeometry>
        </mxCell>
        <mxCell id="yFiq-YPZX80afXa3wXmC-72" value="JPA_API" style="text;html=1;align=center;verticalAlign=middle;resizable=0;points=[];autosize=1;strokeColor=none;fillColor=none;" parent="1" vertex="1">
          <mxGeometry x="906" y="600" width="70" height="30" as="geometry" />
        </mxCell>
        <mxCell id="yFiq-YPZX80afXa3wXmC-73" value="JPA_API" style="text;html=1;align=center;verticalAlign=middle;resizable=0;points=[];autosize=1;strokeColor=none;fillColor=none;" parent="1" vertex="1">
          <mxGeometry x="890" y="849" width="70" height="30" as="geometry" />
        </mxCell>
        <mxCell id="yFiq-YPZX80afXa3wXmC-77" value="" style="rounded=0;orthogonalLoop=1;jettySize=auto;html=1;endArrow=oval;endFill=0;sketch=0;sourcePerimeterSpacing=0;targetPerimeterSpacing=0;endSize=10;exitX=0;exitY=0.5;exitDx=0;exitDy=0;" parent="1" source="yFiq-YPZX80afXa3wXmC-36" target="yFiq-YPZX80afXa3wXmC-78" edge="1">
          <mxGeometry relative="1" as="geometry">
            <mxPoint x="124" y="255" as="sourcePoint" />
          </mxGeometry>
        </mxCell>
        <mxCell id="yFiq-YPZX80afXa3wXmC-78" value="" style="ellipse;whiteSpace=wrap;html=1;align=center;aspect=fixed;fillColor=none;strokeColor=none;resizable=0;perimeter=centerPerimeter;rotatable=0;allowArrows=0;points=[];outlineConnect=1;" parent="1" vertex="1">
          <mxGeometry x="120" y="250" width="10" height="10" as="geometry" />
        </mxCell>
        <mxCell id="yFiq-YPZX80afXa3wXmC-80" value="" style="fontStyle=0;labelPosition=right;verticalLabelPosition=middle;align=left;verticalAlign=middle;spacingLeft=2;" parent="1" vertex="1">
          <mxGeometry x="-100" y="240" width="30" height="30" as="geometry" />
        </mxCell>
        <mxCell id="yFiq-YPZX80afXa3wXmC-83" value="&amp;lt;&amp;lt;delegates&amp;gt;&amp;gt;" style="endArrow=open;startArrow=none;endFill=0;startFill=0;endSize=8;html=1;verticalAlign=bottom;dashed=1;labelBackgroundColor=none;rounded=0;exitX=1;exitY=0.5;exitDx=0;exitDy=0;entryX=0;entryY=1;entryDx=0;entryDy=0;entryPerimeter=0;" parent="1" source="yFiq-YPZX80afXa3wXmC-80" target="yFiq-YPZX80afXa3wXmC-78" edge="1">
          <mxGeometry x="-0.0625" width="160" relative="1" as="geometry">
            <mxPoint x="-130" y="254.5" as="sourcePoint" />
            <mxPoint x="110" y="255" as="targetPoint" />
            <mxPoint as="offset" />
          </mxGeometry>
        </mxCell>
        <mxCell id="yFiq-YPZX80afXa3wXmC-84" value="REST_API" style="text;html=1;align=center;verticalAlign=middle;resizable=0;points=[];autosize=1;strokeColor=none;fillColor=none;" parent="1" vertex="1">
          <mxGeometry x="85" y="260" width="80" height="30" as="geometry" />
        </mxCell>
        <mxCell id="yFiq-YPZX80afXa3wXmC-85" value="" style="rounded=0;orthogonalLoop=1;jettySize=auto;html=1;endArrow=oval;endFill=0;sketch=0;sourcePerimeterSpacing=0;targetPerimeterSpacing=0;endSize=10;exitX=0;exitY=0.5;exitDx=0;exitDy=0;" parent="1" source="yFiq-YPZX80afXa3wXmC-80" edge="1">
          <mxGeometry relative="1" as="geometry">
            <mxPoint x="-191" y="254.41" as="sourcePoint" />
            <mxPoint x="-190" y="254" as="targetPoint" />
          </mxGeometry>
        </mxCell>
        <mxCell id="yFiq-YPZX80afXa3wXmC-86" value="" style="rounded=0;orthogonalLoop=1;jettySize=auto;html=1;endArrow=halfCircle;endFill=0;endSize=6;strokeWidth=1;sketch=0;exitX=1;exitY=0.5;exitDx=0;exitDy=0;" parent="1" source="yFiq-YPZX80afXa3wXmC-87" edge="1">
          <mxGeometry relative="1" as="geometry">
            <mxPoint x="-300" y="254" as="sourcePoint" />
            <mxPoint x="-190" y="254" as="targetPoint" />
          </mxGeometry>
        </mxCell>
        <mxCell id="yFiq-YPZX80afXa3wXmC-87" value="&lt;div&gt;Web Browser&lt;/div&gt;" style="html=1;dropTarget=0;whiteSpace=wrap;" parent="1" vertex="1">
          <mxGeometry x="-413" y="220" width="180" height="70" as="geometry" />
        </mxCell>
        <mxCell id="yFiq-YPZX80afXa3wXmC-88" value="" style="shape=module;jettyWidth=8;jettyHeight=4;" parent="yFiq-YPZX80afXa3wXmC-87" vertex="1">
          <mxGeometry x="1" width="20" height="20" relative="1" as="geometry">
            <mxPoint x="-27" y="7" as="offset" />
          </mxGeometry>
        </mxCell>
        <mxCell id="yFiq-YPZX80afXa3wXmC-89" value="REST_API" style="text;html=1;align=center;verticalAlign=middle;resizable=0;points=[];autosize=1;strokeColor=none;fillColor=none;" parent="1" vertex="1">
          <mxGeometry x="-230" y="258" width="80" height="30" as="geometry" />
        </mxCell>
        <mxCell id="yFiq-YPZX80afXa3wXmC-92" value="&lt;span style=&quot;font-size: 24px;&quot;&gt;BUDGETLY&lt;/span&gt;" style="text;html=1;align=center;verticalAlign=middle;resizable=0;points=[];autosize=1;strokeColor=none;fillColor=none;" parent="1" vertex="1">
          <mxGeometry x="440" y="135" width="150" height="40" as="geometry" />
        </mxCell>
        <mxCell id="yFiq-YPZX80afXa3wXmC-102" value="" style="endArrow=open;endSize=12;html=1;rounded=0;exitX=0;exitY=0.5;exitDx=0;exitDy=0;entryX=1;entryY=0.5;entryDx=0;entryDy=0;" parent="1" source="yFiq-YPZX80afXa3wXmC-45" target="yFiq-YPZX80afXa3wXmC-43" edge="1">
          <mxGeometry width="160" relative="1" as="geometry">
            <mxPoint x="424" y="510" as="sourcePoint" />
            <mxPoint x="84" y="630" as="targetPoint" />
          </mxGeometry>
        </mxCell>
        <mxCell id="yFiq-YPZX80afXa3wXmC-106" value="" style="endArrow=open;endSize=12;html=1;rounded=0;exitX=0;exitY=0.5;exitDx=0;exitDy=0;entryX=0.881;entryY=0.969;entryDx=0;entryDy=0;entryPerimeter=0;" parent="1" source="yFiq-YPZX80afXa3wXmC-49" target="yFiq-YPZX80afXa3wXmC-47" edge="1">
          <mxGeometry width="160" relative="1" as="geometry">
            <mxPoint x="398" y="665" as="sourcePoint" />
            <mxPoint x="610" y="655" as="targetPoint" />
            <Array as="points">
              <mxPoint x="413" y="675" />
            </Array>
          </mxGeometry>
        </mxCell>
        <mxCell id="yFiq-YPZX80afXa3wXmC-107" value="" style="endArrow=open;endSize=12;html=1;rounded=0;exitX=0;exitY=0.75;exitDx=0;exitDy=0;entryX=1;entryY=0.25;entryDx=0;entryDy=0;jumpStyle=arc;" parent="1" source="yFiq-YPZX80afXa3wXmC-55" target="yFiq-YPZX80afXa3wXmC-47" edge="1">
          <mxGeometry width="160" relative="1" as="geometry">
            <mxPoint x="674" y="665" as="sourcePoint" />
            <mxPoint x="624" y="665" as="targetPoint" />
            <Array as="points" />
          </mxGeometry>
        </mxCell>
        <mxCell id="MiRalAxNdnQWMbQH4PvG-1" value="" style="rounded=0;orthogonalLoop=1;jettySize=auto;html=1;endArrow=halfCircle;endFill=0;endSize=6;strokeWidth=1;sketch=0;fontSize=12;curved=1;exitX=0.5;exitY=1;exitDx=0;exitDy=0;" edge="1" parent="1" source="yFiq-YPZX80afXa3wXmC-62" target="yFiq-YPZX80afXa3wXmC-64">
          <mxGeometry relative="1" as="geometry">
            <mxPoint x="980" y="780" as="sourcePoint" />
            <mxPoint x="990" y="870" as="targetPoint" />
          </mxGeometry>
        </mxCell>
        <mxCell id="yFiq-YPZX80afXa3wXmC-64" value="" style="ellipse;html=1;fontSize=11;align=center;fillColor=none;points=[];aspect=fixed;resizable=0;verticalAlign=bottom;labelPosition=center;verticalLabelPosition=top;flipH=1;" parent="1" vertex="1">
          <mxGeometry x="976" y="849" width="8" height="8" as="geometry" />
        </mxCell>
        <mxCell id="MiRalAxNdnQWMbQH4PvG-3" value="" style="endArrow=none;html=1;rounded=0;" edge="1" parent="1">
          <mxGeometry width="50" height="50" relative="1" as="geometry">
            <mxPoint x="979" y="920" as="sourcePoint" />
            <mxPoint x="979" y="860" as="targetPoint" />
          </mxGeometry>
        </mxCell>
        <mxCell id="MiRalAxNdnQWMbQH4PvG-9" value="" style="endArrow=open;endSize=12;html=1;rounded=0;entryX=1;entryY=0.25;entryDx=0;entryDy=0;jumpStyle=arc;" edge="1" parent="1">
          <mxGeometry width="160" relative="1" as="geometry">
            <mxPoint x="670" y="420" as="sourcePoint" />
            <mxPoint x="494" y="640" as="targetPoint" />
            <Array as="points" />
          </mxGeometry>
        </mxCell>
        <mxCell id="MiRalAxNdnQWMbQH4PvG-10" value="" style="endArrow=open;endSize=12;html=1;rounded=0;entryX=1;entryY=0.25;entryDx=0;entryDy=0;jumpStyle=arc;" edge="1" parent="1">
          <mxGeometry width="160" relative="1" as="geometry">
            <mxPoint x="660" y="420" as="sourcePoint" />
            <mxPoint x="434" y="515" as="targetPoint" />
            <Array as="points" />
          </mxGeometry>
        </mxCell>
        <mxCell id="MiRalAxNdnQWMbQH4PvG-11" value="" style="endArrow=open;endSize=12;html=1;rounded=0;exitX=0.5;exitY=1;exitDx=0;exitDy=0;entryX=1;entryY=0.25;entryDx=0;entryDy=0;jumpStyle=arc;" edge="1" parent="1" source="yFiq-YPZX80afXa3wXmC-45">
          <mxGeometry width="160" relative="1" as="geometry">
            <mxPoint x="995" y="520" as="sourcePoint" />
            <mxPoint x="759" y="500" as="targetPoint" />
            <Array as="points" />
          </mxGeometry>
        </mxCell>
        <mxCell id="MiRalAxNdnQWMbQH4PvG-12" value="" style="endArrow=open;endSize=12;html=1;rounded=0;exitX=0;exitY=0.75;exitDx=0;exitDy=0;entryX=0;entryY=0.5;entryDx=0;entryDy=0;jumpStyle=arc;" edge="1" parent="1" target="yFiq-YPZX80afXa3wXmC-43">
          <mxGeometry width="160" relative="1" as="geometry">
            <mxPoint x="470" y="695" as="sourcePoint" />
            <mxPoint x="254" y="390" as="targetPoint" />
            <Array as="points">
              <mxPoint x="210" y="695" />
              <mxPoint x="210" y="385" />
            </Array>
          </mxGeometry>
        </mxCell>
      </root>
    </mxGraphModel>
  </diagram>
</mxfile>
